<?xml version="1.0" encoding="UTF-8" standalone="no"?>
<svg width="174px" height="54px" viewBox="0 0 174 54" version="1.1" xmlns="http://www.w3.org/2000/svg" xmlns:xlink="http://www.w3.org/1999/xlink" xmlns:sketch="http://www.bohemiancoding.com/sketch/ns">
    <!-- Generator: Sketch 3.3.3 (12081) - http://www.bohemiancoding.com/sketch -->
    <title>Kopinor-svart logo</title>
    <desc>Created with Sketch.</desc>
    <defs></defs>
    <g id="style-guide" stroke="none" stroke-width="1" fill="none" fill-rule="evenodd" sketch:type="MSPage">
        <g id="logo" sketch:type="MSArtboardGroup" transform="translate(-25.000000, -85.000000)" fill="#1A1918">
            <g id="Kopinor-svart-logo" sketch:type="MSLayerGroup" transform="translate(25.000000, 84.000000)">
                <path d="M14.9559444,19.7744 L28.1783333,4.944 L28.1783333,4.4576 C28.1783333,4.4576 26.4963333,4.6448 25.2251667,4.6448 C23.9507778,4.6448 22.2188333,4.4576 22.2188333,4.4576 L8.34716667,21.4448 L8.34716667,19.7184 L8.66455556,7.1008 L8.82244444,4.4576 C8.82244444,4.4576 7.04055556,4.6448 4.83977778,4.6624 C2.639,4.6784 0.203,4.4576 0.203,4.4576 C0.203,4.4576 0.555833333,16.0656 0.610611111,21.9232 C0.642833333,25.52 0,41.1264 0,41.1264 C0,41.1264 3.08527778,40.8592 4.46438889,40.8592 C5.37466667,40.8592 7.75105556,41.0192 8.55177778,41.1264 L8.34716667,24.2768 L19.0771667,41.0608 C19.0771667,41.0608 21.5679444,40.8512 23.5737778,40.8592 C25.5812222,40.8624 28.4506111,41.0608 28.4506111,41.0608 L28.4506111,40.4368 L19.3832778,26.5184 L14.9559444,19.7744" id="Fill-1" sketch:type="MSShapeGroup"></path>
                <path d="M45.3221667,36.4128 C44.4022222,38.3872 43.0730556,39.3744 41.3411111,39.3744 C37.9481111,39.3744 36.25,35.7648 36.25,28.5424 C36.25,24.8048 36.7204444,21.9584 37.6581111,20.0016 C38.5973889,18.0432 39.9507222,17.064 41.7213333,17.064 C45.0418333,17.064 46.7028889,20.4768 46.7028889,27.3024 C46.7028889,31.3984 46.2421111,34.4336 45.3221667,36.4128 L45.3221667,36.4128 Z M51.0706111,18.1456 C48.6410556,15.8976 45.5251667,14.7712 41.7213333,14.7712 C37.6983889,14.7712 34.4471667,16.0576 31.9644444,18.632 C29.4833333,21.2032 28.2411667,24.5968 28.2411667,28.8064 C28.2411667,32.7648 29.4108333,35.8864 31.7469444,38.1728 C34.0846667,40.4576 37.2633889,41.6016 41.2863333,41.6016 C45.3076667,41.6016 48.5524444,40.3424 51.0158333,37.8208 C53.4792222,35.3024 54.7117222,32.0096 54.7117222,27.9424 C54.7117222,23.6592 53.4969444,20.3968 51.0706111,18.1456 L51.0706111,18.1456 Z" id="Fill-3" sketch:type="MSShapeGroup"></path>
                <path d="M74.4832778,34.984 C73.8871667,37.1472 72.4871111,38.2304 70.2815,38.2304 C68.5092778,38.2304 67.2542222,37.264 66.5131111,35.3344 C65.772,33.4048 65.4030556,31.0336 65.4030556,28.2208 C65.4030556,25.584 65.7897222,23.2576 66.5662778,21.2368 C67.3460556,19.2208 68.6381667,18.2096 70.4458333,18.2096 C73.7341111,18.2096 75.3790556,21.224 75.3790556,27.2448 C75.3790556,30.2384 75.081,32.8208 74.4832778,34.984 L74.4832778,34.984 Z M72.9688333,14.8384 C71.0870556,14.8384 69.5210556,15.2384 68.2740556,16.0336 C67.0254444,16.8336 65.9492222,18.12 65.0453889,19.896 C65.0453889,18.7168 65.1307778,18.0944 65.2000556,17.5008 C65.2693333,16.912 65.4191667,15.4448 65.4191667,15.4448 C65.4191667,15.4448 63.2602778,15.6592 62.2710556,15.6592 C60.7340556,15.664 58.2755,15.4448 58.2755,15.4448 L58.5461667,40.168 L58.2755,51.9632 C59.2163889,51.8544 59.7303333,51.7824 60.3651111,51.7488 C60.9982778,51.7136 61.7313333,51.6944 62.5642778,51.6944 C63.2151667,51.6944 64.0674444,51.7136 64.5733333,51.7488 C65.0808333,51.7824 65.6060556,51.8544 66.149,51.9632 C65.888,49.6016 65.7220556,47.2944 65.6479444,45.04 C65.5738333,42.7872 65.5383889,40.3392 65.5383889,37.6912 C66.4438333,39.152 67.4427222,40.1728 68.5302222,40.744 C69.6193333,41.3136 71.0886667,41.6016 72.9382222,41.6016 C76.0943889,41.6016 78.6270556,40.3504 80.5313889,37.8496 C82.4357222,35.352 83.3878889,31.9952 83.3878889,27.7888 C83.3878889,23.8672 82.4389444,20.7296 80.5378333,18.3744 C78.6399444,16.0192 76.1153333,14.8384 72.9688333,14.8384 L72.9688333,14.8384 Z" id="Fill-4" sketch:type="MSShapeGroup"></path>
                <path d="M95.4631667,15.3776 C94.3756667,15.488 93.5878333,15.5152 91.4917778,15.5408 C89.3989444,15.568 87.2497222,15.3776 87.2497222,15.3776 C87.2497222,15.3776 87.7475556,20.5104 87.6573333,27.1776 C87.5687222,33.8432 87.0451111,40.8592 87.0451111,40.8592 C88.4596667,40.7136 89.8629444,40.6416 90.1738889,40.6416 L91.3983333,40.6416 C92.2296667,40.6416 92.9820556,40.6592 93.6538889,40.6976 C94.3241111,40.7328 94.4965,40.7856 95.2585556,40.8592 L94.8525556,30.9456 C94.8525556,27.824 94.8960556,25.056 94.9911111,22.6512 C95.0845556,20.2464 95.2392222,17.8224 95.4631667,15.3776" id="Fill-5" sketch:type="MSShapeGroup"></path>
                <path d="M91.2823333,10.3296 C92.5003333,10.3296 93.5362778,9.904 94.3901667,9.056 C95.2456667,8.2064 95.6742222,7.16 95.6742222,5.9136 C95.6742222,4.704 95.2456667,3.6768 94.3901667,2.8288 C93.5362778,1.9792 92.5003333,1.5552 91.2823333,1.5552 C90.0288889,1.5552 88.9752222,1.9792 88.1181111,2.8288 C87.2642222,3.6768 86.8356667,4.704 86.8356667,5.9136 C86.8356667,7.1216 87.2738889,8.1616 88.1471111,9.0288 C89.0203333,9.8976 90.0659444,10.3296 91.2823333,10.3296" id="Fill-6" sketch:type="MSShapeGroup"></path>
                <path d="M124.153833,23.8352 C124.153833,20.928 123.414333,18.7008 121.933722,17.1584 C120.453111,15.6144 118.321611,14.8384 115.540833,14.8384 C112.471667,14.8384 109.798833,16.368 107.523944,19.4256 C107.523944,18.3792 107.541667,17.6176 107.5755,17.1312 C107.609333,16.6464 107.660889,16.0608 107.728556,15.3776 C106.526667,15.6336 105.339278,15.6592 104.2115,15.6592 C102.937111,15.6592 101.612778,15.6336 100.193389,15.3776 C100.193389,15.3776 100.618722,21.1888 100.771778,27.6688 C100.923222,34.1488 100.544611,40.776 100.544611,40.776 C100.544611,40.776 102.365167,40.6256 104.354889,40.616 C106.346222,40.6064 107.931556,40.8592 107.931556,40.8592 L107.620611,30.4576 C107.620611,28.84 107.638333,27.5552 107.673778,26.6048 C107.709222,25.6512 107.789778,24.6208 107.917056,23.504 C108.044333,22.392 108.487389,21.4224 109.247833,20.5952 C110.008278,19.768 111.021667,19.3568 112.289611,19.3568 C115.221833,19.3568 116.687944,21.7456 116.687944,26.5232 L116.776556,32.1888 L116.399556,40.776 C116.399556,40.776 118.407,40.608 120.1035,40.616 C121.8,40.6256 124.2215,40.8592 124.2215,40.8592 L123.991111,33.8544 L124.153833,23.8352" id="Fill-7" sketch:type="MSShapeGroup"></path>
                <path d="M144.824389,36.4128 C143.902833,38.3872 142.575278,39.3744 140.843333,39.3744 C137.448722,39.3744 135.753833,35.7648 135.753833,28.5424 C135.753833,24.8048 136.222667,21.9584 137.161944,20.0016 C138.099611,18.0432 139.454556,17.064 141.221944,17.064 C144.544056,17.064 146.205111,20.4768 146.205111,27.3024 C146.205111,31.3984 145.744333,34.4336 144.824389,36.4128 L144.824389,36.4128 Z M150.572833,18.1456 C148.143278,15.8976 145.029,14.7712 141.223556,14.7712 C137.200611,14.7712 133.947778,16.0576 131.466667,18.632 C128.985556,21.2032 127.743389,24.5968 127.743389,28.8064 C127.743389,32.7648 128.913056,35.8864 131.249167,38.1728 C133.586889,40.4576 136.767222,41.6016 140.788556,41.6016 C144.8115,41.6016 148.054667,40.3424 150.518056,37.8208 C152.981444,35.3024 154.213944,32.0096 154.213944,27.9424 C154.213944,23.6592 152.999167,20.3968 150.572833,18.1456 L150.572833,18.1456 Z" id="Fill-8" sketch:type="MSShapeGroup"></path>
                <path d="M173.645556,18.4032 C173.676167,16.6208 173.790556,15.488 173.866278,14.8384 C171.546278,14.8384 169.699944,15.4544 168.324056,16.6848 C166.948167,17.912 165.809111,19.7008 164.903667,22.0528 L164.903667,20.064 L164.971333,15.4448 C164.091667,15.5904 163.271611,15.7248 161.327,15.7648 C159.382389,15.8032 158.149889,15.5184 157.710056,15.4448 C157.710056,15.4448 158.0645,19.5312 158.116056,28.0448 C158.167611,36.5584 157.710056,40.8592 157.710056,40.8592 C157.710056,40.8592 160.121889,40.616 161.639556,40.6416 C163.158833,40.6672 165.514278,40.8592 165.514278,40.8592 C165.514278,40.8592 165.119556,33.3168 165.175944,29.448 C165.232333,25.5808 165.602889,24.7584 166.46,23.5568 C167.318722,22.3552 168.710722,21.7552 170.644056,21.7552 C171.481833,21.7552 172.355056,21.9872 173.266944,22.4544 L173.866278,22.0256 C173.866278,22.0256 173.613333,20.1888 173.645556,18.4032" id="Fill-9" sketch:type="MSShapeGroup"></path>
                <path d="M91.4418333,45.6256 C90.1883889,45.6256 89.1315,46.0464 88.2776111,46.8976 C87.4237222,47.7456 86.9935556,48.7744 86.9935556,49.9824 C86.9935556,51.1904 87.4317778,52.2304 88.3066111,53.0976 C89.1798333,53.9648 90.2238333,54.4 91.4418333,54.4 C92.6598333,54.4 93.6925556,53.9744 94.5496667,53.1248 C95.4035556,52.2768 95.8305,51.2288 95.8305,49.9824 C95.8305,48.7744 95.4035556,47.7456 94.5496667,46.8976 C93.6925556,46.0464 92.6598333,45.6256 91.4418333,45.6256" id="Fill-10" sketch:type="MSShapeGroup"></path>
            </g>
        </g>
    </g>
</svg>