<?xml version="1.0" encoding="UTF-8" standalone="no"?>
<svg width="330px" height="330px" viewBox="0 0 330 330" version="1.1" xmlns="http://www.w3.org/2000/svg" xmlns:xlink="http://www.w3.org/1999/xlink" xmlns:sketch="http://www.bohemiancoding.com/sketch/ns">
    <!-- Generator: Sketch 3.3.3 (12081) - http://www.bohemiancoding.com/sketch -->
    <title>logo_kopinor</title>
    <desc>Created with Sketch.</desc>
    <defs></defs>
    <g id="font" stroke="none" stroke-width="1" fill="none" fill-rule="evenodd" sketch:type="MSPage">
        <g id="logo_kopinor" sketch:type="MSArtboardGroup" fill="#1A1918">
            <g id="Kopinor-svart-logo" sketch:type="MSLayerGroup" transform="translate(68.000000, 134.000000)">
                <path d="M16.6750185,21.8930857 L31.4172222,5.47371429 L31.4172222,4.9352 C31.4172222,4.9352 29.5418889,5.14245714 28.1246111,5.14245714 C26.7037407,5.14245714 24.7727222,4.9352 24.7727222,4.9352 L9.30661111,23.7424571 L9.30661111,21.8310857 L9.66048148,7.8616 L9.83651852,4.9352 C9.83651852,4.9352 7.84981481,5.14245714 5.39607407,5.16194286 C2.94233333,5.17965714 0.226333333,4.9352 0.226333333,4.9352 C0.226333333,4.9352 0.619722222,17.7869143 0.680796296,24.2721143 C0.716722222,28.2542857 0,45.5328 0,45.5328 C0,45.5328 3.43990741,45.2369714 4.97753704,45.2369714 C5.99244444,45.2369714 8.64198148,45.4141143 9.53474074,45.5328 L9.30661111,26.8778857 L21.2699444,45.4601714 C21.2699444,45.4601714 24.0470185,45.2281143 26.2834074,45.2369714 C28.5215926,45.2405143 31.7207963,45.4601714 31.7207963,45.4601714 L31.7207963,44.7693143 L21.6112407,29.3596571 L16.6750185,21.8930857" id="Fill-1" sketch:type="MSShapeGroup"></path>
                <path d="M50.5316111,40.3141714 C49.5059259,42.5001143 48.0239815,43.5930857 46.092963,43.5930857 C42.309963,43.5930857 40.4166667,39.5967429 40.4166667,31.6005143 C40.4166667,27.4624571 40.9411852,24.3110857 41.9866296,22.1446286 C43.0338704,19.9764 44.5427593,18.8922857 46.5168889,18.8922857 C50.2190556,18.8922857 52.071037,22.6707429 52.071037,30.2276571 C52.071037,34.7625143 51.5572963,38.1229143 50.5316111,40.3141714 L50.5316111,40.3141714 Z M56.9407963,20.0897714 C54.2319815,17.6009143 50.7579444,16.3538286 46.5168889,16.3538286 C42.031537,16.3538286 38.4066111,17.7780571 35.6385185,20.6282857 C32.8722222,23.4749714 31.4872778,27.2321714 31.4872778,31.8928 C31.4872778,36.2753143 32.7913889,39.7313714 35.3960185,42.2627429 C38.0024444,44.7923429 41.546537,46.0589143 46.0318889,46.0589143 C50.5154444,46.0589143 54.1331852,44.6648 56.8797222,41.8730286 C59.6262593,39.0848 61.0004259,35.4392 61.0004259,30.9362286 C61.0004259,26.1941143 59.6460185,22.5821714 56.9407963,20.0897714 L56.9407963,20.0897714 Z" id="Fill-3" sketch:type="MSShapeGroup"></path>
                <path d="M83.0445741,38.7322857 C82.3799444,41.1272571 80.818963,42.3265143 78.3598333,42.3265143 C76.3839074,42.3265143 74.9845926,41.2565714 74.1582963,39.1202286 C73.332,36.9838857 72.9206481,34.3586286 72.9206481,31.2444571 C72.9206481,28.3251429 73.3517593,25.7494857 74.2175741,23.5121714 C75.0869815,21.2801714 76.5276111,20.1606286 78.5430556,20.1606286 C82.2092963,20.1606286 84.0433148,23.498 84.0433148,30.1638857 C84.0433148,33.4782286 83.711,36.3373143 83.0445741,38.7322857 L83.0445741,38.7322857 Z M81.3560556,16.4282286 C79.2579815,16.4282286 77.5119815,16.8710857 76.1216481,17.7514857 C74.7295185,18.6372 73.5295926,20.0614286 72.5218704,22.0277143 C72.5218704,20.7221714 72.6170741,20.0330857 72.6943148,19.3758857 C72.7715556,18.724 72.9386111,17.0996 72.9386111,17.0996 C72.9386111,17.0996 70.5315741,17.3369714 69.4286481,17.3369714 C67.7149815,17.3422857 64.9738333,17.0996 64.9738333,17.0996 L65.2756111,44.4717143 L64.9738333,57.5306857 C66.0228704,57.4102286 66.5958889,57.3305143 67.3036296,57.2933143 C68.0095741,57.2543429 68.8268889,57.2330857 69.7555741,57.2330857 C70.4812778,57.2330857 71.4315185,57.2543429 71.9955556,57.2933143 C72.5613889,57.3305143 73.1469815,57.4102286 73.7523333,57.5306857 C73.4613333,54.9160571 73.2763148,52.3616571 73.1936852,49.8657143 C73.1110556,47.3715429 73.071537,44.6612571 73.071537,41.7295429 C74.0810556,43.3468571 75.1947593,44.4770286 76.4072593,45.1094286 C77.6215556,45.7400571 79.2597778,46.0589143 81.3219259,46.0589143 C84.8408704,46.0589143 87.6646481,44.6736571 89.7878704,41.9049143 C91.9110926,39.1397143 92.9727037,35.4232571 92.9727037,30.7661714 C92.9727037,26.4244 91.9146852,22.9506286 89.7950556,20.3430857 C87.6790185,17.7355429 84.8642222,16.4282286 81.3560556,16.4282286 L81.3560556,16.4282286 Z" id="Fill-4" sketch:type="MSShapeGroup"></path>
                <path d="M106.435944,17.0252 C105.223444,17.1474286 104.345056,17.1775429 102.008074,17.2058857 C99.6746852,17.236 97.2784259,17.0252 97.2784259,17.0252 C97.2784259,17.0252 97.8334815,22.7079429 97.7328889,30.0894857 C97.6340926,37.4692571 97.0502963,45.2369714 97.0502963,45.2369714 C98.6274444,45.0757714 100.192019,44.9960571 100.538704,44.9960571 L101.903889,44.9960571 C102.830778,44.9960571 103.669648,45.0155429 104.418704,45.0580571 C105.165963,45.0970286 105.358167,45.1554857 106.207815,45.2369714 L105.755148,34.2612 C105.755148,30.8051429 105.803648,27.7405714 105.90963,25.0781143 C106.013815,22.4156571 106.186259,19.7319429 106.435944,17.0252" id="Fill-5" sketch:type="MSShapeGroup"></path>
                <path d="M101.774556,11.4363429 C103.132556,11.4363429 104.287574,10.9651429 105.239611,10.0262857 C106.193444,9.08565714 106.671259,7.92714286 106.671259,6.5472 C106.671259,5.208 106.193444,4.07074286 105.239611,3.13188571 C104.287574,2.19125714 103.132556,1.72182857 101.774556,1.72182857 C100.377037,1.72182857 99.2022593,2.19125714 98.2466296,3.13188571 C97.2945926,4.07074286 96.8167778,5.208 96.8167778,6.5472 C96.8167778,7.88462857 97.3053704,9.03605714 98.278963,9.99617143 C99.2525556,10.9580571 100.418352,11.4363429 101.774556,11.4363429" id="Fill-6" sketch:type="MSShapeGroup"></path>
                <path d="M138.424389,26.3889714 C138.424389,23.1702857 137.599889,20.7044571 135.949093,18.9968 C134.298296,17.2873714 131.921796,16.4282286 128.821389,16.4282286 C125.399444,16.4282286 122.419389,18.1217143 119.883019,21.5069143 C119.883019,20.3484 119.902778,19.5052 119.9405,18.9666857 C119.978222,18.4299429 120.035704,17.7816 120.111148,17.0252 C118.771111,17.3086286 117.447241,17.3369714 116.189833,17.3369714 C114.768963,17.3369714 113.292407,17.3086286 111.70987,17.0252 C111.70987,17.0252 112.184093,23.4590286 112.354741,30.6333143 C112.523593,37.8076 112.101463,45.1448571 112.101463,45.1448571 C112.101463,45.1448571 114.131278,44.9783429 116.349704,44.9677143 C118.569926,44.9570857 120.337481,45.2369714 120.337481,45.2369714 L119.990796,33.7209143 C119.990796,31.93 120.010556,30.5075429 120.050074,29.4553143 C120.089593,28.3995429 120.179407,27.2587429 120.321315,26.0222857 C120.463222,24.7911429 120.957204,23.7176571 121.805056,22.8018286 C122.652907,21.886 123.782778,21.4307429 125.196463,21.4307429 C128.465722,21.4307429 130.100352,24.0754857 130.100352,29.3649714 L130.199148,35.6376 L129.778815,45.1448571 C129.778815,45.1448571 132.017,44.9588571 133.9085,44.9677143 C135.8,44.9783429 138.499833,45.2369714 138.499833,45.2369714 L138.242963,37.4816571 L138.424389,26.3889714" id="Fill-7" sketch:type="MSShapeGroup"></path>
                <path d="M161.47087,40.3141714 C160.443389,42.5001143 158.963241,43.5930857 157.032222,43.5930857 C153.247426,43.5930857 151.357722,39.5967429 151.357722,31.6005143 C151.357722,27.4624571 151.880444,24.3110857 152.927685,22.1446286 C153.97313,19.9764 155.483815,18.8922857 157.454352,18.8922857 C161.158315,18.8922857 163.010296,22.6707429 163.010296,30.2276571 C163.010296,34.7625143 162.496556,38.1229143 161.47087,40.3141714 L161.47087,40.3141714 Z M167.880056,20.0897714 C165.171241,17.6009143 161.699,16.3538286 157.456148,16.3538286 C152.970796,16.3538286 149.344074,17.7780571 146.577778,20.6282857 C143.811481,23.4749714 142.426537,27.2321714 142.426537,31.8928 C142.426537,36.2753143 143.730648,39.7313714 146.335278,42.2627429 C148.941704,44.7923429 152.487593,46.0589143 156.971148,46.0589143 C161.4565,46.0589143 165.072444,44.6648 167.818981,41.8730286 C170.565519,39.0848 171.939685,35.4392 171.939685,30.9362286 C171.939685,26.1941143 170.585278,22.5821714 167.880056,20.0897714 L167.880056,20.0897714 Z" id="Fill-8" sketch:type="MSShapeGroup"></path>
                <path d="M193.604815,20.3749714 C193.638944,18.4016 193.766481,17.1474286 193.850907,16.4282286 C191.264241,16.4282286 189.205685,17.1102286 187.671648,18.4724571 C186.137611,19.8311429 184.86763,21.8116 183.858111,24.4156 L183.858111,22.2137143 L183.933556,17.0996 C182.952778,17.2608 182.038463,17.4096 179.870333,17.4538857 C177.702204,17.4964 176.328037,17.1810857 175.837648,17.0996 C175.837648,17.0996 176.232833,21.6238286 176.290315,31.0496 C176.347796,40.4753714 175.837648,45.2369714 175.837648,45.2369714 C175.837648,45.2369714 178.526704,44.9677143 180.218815,44.9960571 C181.912722,45.0244 184.538907,45.2369714 184.538907,45.2369714 C184.538907,45.2369714 184.098815,36.8864571 184.161685,32.6031429 C184.224556,28.3216 184.637704,27.4110857 185.593333,26.0807429 C186.550759,24.7504 188.102759,24.0861143 190.258315,24.0861143 C191.192389,24.0861143 192.165981,24.3429714 193.182685,24.8602286 L193.850907,24.3854857 C193.850907,24.3854857 193.568889,22.3518857 193.604815,20.3749714" id="Fill-9" sketch:type="MSShapeGroup"></path>
                <path d="M101.952389,50.5140571 C100.55487,50.5140571 99.3765,50.9799429 98.424463,51.9223429 C97.4724259,52.8612 96.9928148,54.0002286 96.9928148,55.3376571 C96.9928148,56.6750857 97.4814074,57.8265143 98.4567963,58.7866286 C99.4303889,59.7467429 100.594389,60.2285714 101.952389,60.2285714 C103.310389,60.2285714 104.461815,59.7573714 105.417444,58.8167429 C106.369481,57.8778857 106.8455,56.7176 106.8455,55.3376571 C106.8455,54.0002286 106.369481,52.8612 105.417444,51.9223429 C104.461815,50.9799429 103.310389,50.5140571 101.952389,50.5140571" id="Fill-10" sketch:type="MSShapeGroup"></path>
            </g>
        </g>
    </g>
</svg>